<svg xmlns="http://www.w3.org/2000/svg" version="1.1" xmlns:xlink="http://www.w3.org/1999/xlink" xmlns:svgjs="http://svgjs.com/svgjs" width="704" height="600"><svg xmlns="http://www.w3.org/2000/svg" width="704" height="600" viewBox="0 0 704 600"><path fill="#262626" d="M88.862 599.394C157.914 599.394 198.666 549.586 198.666 484.496L198.666 148.292 117.728 148.292 118.294 480.534C118.294 506.57 105.842 523.55 85.466 523.55 71.316 523.55 58.298 516.758 52.072 497.514L1.13686838e-13 547.322C16.98 582.414 51.506 599.394 88.862 599.394ZM105.842 67.92C105.842 96.22 129.614 119.992 157.914 119.992 186.214 119.992 209.986 96.22 209.986 67.92 209.986 39.62 186.214 15.848 157.914 15.848 129.614 15.848 105.842 39.62 105.842 67.92ZM353.184 424.5 353.184 388.276C374.692 414.312 404.69 430.16 436.952 430.16 514.494 430.16 556.378 359.976 556.378 285.264 556.378 211.684 512.796 142.066 436.386 142.066 405.822 142.066 377.522 153.386 356.014 176.026L356.014 0 276.774 0 276.774 424.5 353.184 424.5ZM416.01 359.976C379.786 359.976 354.882 323.752 354.882 285.83 354.882 243.38 379.22 212.816 416.01 212.816 457.328 212.816 477.704 245.644 477.704 286.396 477.704 326.582 456.762 359.976 416.01 359.976ZM599.394 377.522C599.394 405.822 623.166 429.594 651.466 429.594 679.766 429.594 703.538 405.822 703.538 377.522 703.538 349.222 679.766 325.45 651.466 325.45 623.166 325.45 599.394 349.222 599.394 377.522Z" transform="translate(.08 .5)"></path></svg><style>@media (prefers-color-scheme: light) { :root { filter: none; } }
@media (prefers-color-scheme: dark) { :root { filter: contrast(0.3846153846153846) brightness(4.5); } }
</style></svg>