<svg xmlns="http://www.w3.org/2000/svg" width="3065" height="746" viewBox="0 0 3065 746">
  <g fill="currentColor">
    <path d="M90.157 745.894c58.612 0 98.836-44.141 98.836-104.128v-337.85h-61.485l.574 336.152c0 28.862-17.239 48.103-39.65 48.103-18.388 0-35.627-7.923-41.947-33.955L.514 684.776c15.515 40.745 48.269 61.118 89.643 61.118Zm25.876-514.916c0 23.324 19.424 42.666 42.275 42.666 23.422 0 42.845-19.342 42.845-42.666 0-22.755-19.423-42.097-42.845-42.097-22.851 0-42.275 19.342-42.275 42.097Zm270.56 345.39c75.999 0 136.799-61.011 136.799-139.535 0-77.96-60.8-138.97-136.8-138.97-76.562 0-136.8 61.01-136.8 138.97 0 78.524 60.238 139.535 136.8 139.535Zm3.32-48.435c-46.13 0-79.32-36.935-79.32-88.075 0-50.003 31.503-87.506 79.32-87.506 47.256 0 78.759 36.935 78.759 87.506 0 51.14-31.503 88.075-78.759 88.075Zm251.486 42.78c0-18.1-.572-31.11-1.144-39.594 20.022 28.28 50.342 45.25 85.811 45.25 72.082 0 119.564-60.522 119.564-140.273 0-79.187-48.626-138.01-120.136-138.01-34.324 0-63.5 14.14-83.523 40.158.572-4.525 1.144-8.484 1.144-11.312V146.5h-58.924v424.212H641.4Zm69.314-42.78c-44.587 0-71.802-38.071-71.802-88.075 0-52.276 27.215-87.506 71.802-87.506 43.428 0 74.117 35.798 74.117 86.938s-31.268 88.643-74.117 88.643Zm423.164 42.78c0-18.1-.572-31.11-1.144-39.594 20.022 28.28 50.342 45.25 85.81 45.25 72.083 0 119.565-60.522 119.565-140.273 0-79.187-48.627-138.01-120.136-138.01-34.325 0-63.5 14.14-83.523 40.158.572-4.525 1.144-8.484 1.144-11.312V146.5h-58.924v424.212h57.208Zm69.313-42.78c-44.586 0-71.801-38.071-71.801-88.075 0-52.276 27.215-87.506 71.801-87.506 43.429 0 74.118 35.798 74.118 86.938s-31.268 88.643-74.118 88.643Zm314.277 48.435c76 0 136.8-61.011 136.8-139.535 0-77.96-60.8-138.97-136.8-138.97-76.563 0-136.8 61.01-136.8 138.97 0 78.524 60.237 139.535 136.8 139.535Zm3.321-48.435c-46.13 0-79.32-36.935-79.32-88.075 0-50.003 31.503-87.506 79.32-87.506 47.255 0 78.759 36.935 78.759 87.506 0 51.14-31.504 88.075-78.759 88.075Zm455.717 42.832v-53.796h-8.03c-10.325 0-16.634-6.164-16.634-15.69v-96.946c0-63.322-44.74-106.47-117.584-106.47-75.14 0-106.687 52.114-106.687 52.114l43.019 31.941c13.766-19.613 37.283-31.38 61.373-31.38 37.283 0 61.373 22.414 61.373 55.476v13.45c-14.34-2.802-39.577-8.406-68.83-8.406-82.022 0-121.599 39.786-121.599 87.418 0 39.787 30.974 77.892 92.347 77.892 53.917 0 87.184-26.337 104.392-52.114 8.03 27.458 25.811 46.51 60.226 46.51h16.634Zm-168.91-42.832c-29.64 0-43.89-15.512-43.89-34.471 0-25.853 27.36-44.238 69.54-44.238 21.66 0 45.03 4.022 58.14 6.894-6.27 35.62-34.77 71.815-83.79 71.815Zm349.363-230.311c-33.535 0-57.975 18.112-73.322 43.582.569-6.792 1.137-13.584 1.137-19.244v-18.112h-58.543V571h58.543V430.632c0-45.846 29.556-75.278 72.185-76.976v-56.034Zm299.865 273.09V146.5h-58.924v180.432c0 3.393.572 6.787 1.144 10.18-20.595-26.018-50.343-39.027-83.523-39.027-71.51 0-120.136 58.824-120.136 138.01 0 79.752 47.482 140.273 119.564 140.273 34.896 0 65.216-16.402 85.811-44.683-.572 8.484-1.144 20.928-1.144 39.027h57.208Zm-126.522-42.78c-42.849 0-74.117-37.502-74.117-88.642 0-51.14 30.689-86.938 74.117-86.938 44.587 0 71.802 35.23 71.802 87.506 0 50.004-27.215 88.075-71.802 88.075ZM2592.907 571V146.5h-60.248V571zM2664.523 731.744h62.523l190.408-427.896h-63.66l-54.564 125.086c-13.641 31.696-23.304 54.902-23.304 54.902s-7.957-23.206-21.03-54.902l-51.722-125.086h-63.091l104.014 249.04-79.574 178.856Zm284.192-207.722c0 28.3 23.872 52.072 52.291 52.072 28.42 0 52.291-23.772 52.291-52.072 0-28.3-23.872-52.072-52.291-52.072-28.42 0-52.291 23.772-52.291 52.072Z"/>
  </g>
</svg>
